Patient4_TMGait_0pt3_03_left_16_EMG.mot
version=1
nRows=20
nColumns=33
inDegrees=no
endheader
time	1LAddLong	2LGlutMax	3LGlutMed	4LIliopsoas	5LSemiMemb	6LBicFemLong	7LRecFem	8LVastMed	9LVastLat	10LGasMed	11LTibAnt	12lTibPost	13LPeroneusLong	14LSol	15LExtDigLong	16LFlexDigLong	17RAddLong	18RGlutMax	19RGlutMed	20RIliopsoas	21RSemiMemb	22RBicFemLong	23RRecFem	24RVastMed	25RVastLat	26RGasMed	27RTibAnt	28RTibPost	29RPeroneusLong	30RSol	31RExtDigLong	32RFlexDigLong
30.475	-0.005188	-0.1741	-0.12619	0.00946	-0.032349	0.031586	0.037994	0.002441	0.012207	-0.0177	0.014496	0.008545	0.082092	-0.083618	0.019836	-0.004883	0.010223	-0.03479	0.03006	0.006409	0.031586	-0.046082	0.024414	-0.10086	0.018005	-0.001831	0.62485	-0.00824	-0.008392	-0.1059	-0.002136	-0.009918
30.476	-0.00946	-0.13458	-0.087128	-0.016937	-0.033875	0.052643	0.047607	0.002289	0.00061	-0.011292	0.008392	0.01709	0.06073	-0.18173	0.003357	-0.009003	0.005035	-0.045929	-0.13473	-0.023804	0.042114	-0.066376	0.018005	-0.060577	0.02533	-0.007935	0.47073	-0.00824	-0.088501	0.14069	-0.001526	-0.015564
30.477	0.011292	-0.1355	-0.052948	-0.011902	-0.041199	0.0914	0.023193	0.001373	-0.002747	-0.049744	0.004883	0.014343	0.036316	0.10773	0.020905	0.001221	0.04837	-0.059814	-0.23331	0.071411	0.045929	-0.081177	0.012512	-0.019989	0.006561	-0.010986	0.036926	-0.012207	-0.061646	0.27481	-0.000763	-0.016479
30.478	-0.003357	-0.13092	-0.018005	-0.011292	-0.054932	0.092773	0.016785	0.005951	0.001526	-0.069885	0.00473	0.009308	0.023956	0.30182	0.008545	-0.005646	0.061035	-0.103	-0.22385	0.094757	0.02655	-0.063019	0.023956	-0.079803	0.0177	-0.001373	-0.38025	-0.006104	-0.071411	0.22797	0	-0.011139
30.479	-0.010834	-0.15182	0.10071	0.002289	-0.023499	0.054932	0.011139	-0.002747	0.00885	-0.14313	0.006714	0.021667	-0.005798	0.21759	0.012817	0.003662	0.034027	-0.06134	-0.1619	0.077972	-0.002594	-0.053558	0.036163	-0.0737	0.012817	-0.018005	-1.1017	-0.003662	-0.11856	0.14923	-0.001221	0.000153
30.48	0.007172	-0.16449	0.04715	0.014343	-0.031586	-0.052948	0.020142	-0.000458	0.002899	-0.17014	0.007782	0.019836	0.002136	0.10849	0.018463	0.002136	-0.012512	-0.050049	-0.29724	0.072632	-0.018921	-0.070801	0.041962	-0.098572	0.012512	-0.014801	-0.59448	-0.012665	-0.28076	0.028687	0	-0.00946
30.481	0.036621	-0.093231	0.039368	0.004883	0.10513	-0.091553	0.011749	-0.011444	0.011444	-0.10071	0.008545	0.015869	0.045776	0.011292	0.023499	-0.003357	-0.058136	-0.021667	-0.38559	0.082397	-0.006714	-0.090179	0.012054	-0.083618	0.00412	-0.016785	-0.1384	-0.001678	-0.22492	-0.090485	0.001068	-0.008698
30.482	0.039825	-0.02182	0.06073	0.014038	0.14435	-0.023041	0.014038	-0.003204	0.005341	-0.16007	0.021515	0.025177	0.050049	-0.052185	0.040131	-0.002289	-0.066071	-0.015717	-0.1889	0.054321	0.00885	-0.075226	0.031281	-0.08667	0.018921	-0.002441	0.4509	-0.007782	-0.20035	-0.18616	-0.002594	0.001526
30.483	0.021057	0.0177	-0.048676	-0.001526	0.12543	-0.085144	0.021057	0.001068	-0.007629	-0.17517	0.015564	-0.00412	0.022736	-0.20935	0.039825	0.016632	-0.065155	0.068207	-0.11475	0.061798	0.033417	-0.07431	-0.016937	-0.011444	0.031891	-0.004883	0.5249	-0.001221	-0.19119	-0.1799	0.002594	-0.006409
30.484	0.011749	-0.059509	-0.02655	0.005798	0.052338	-0.071869	0.034485	0.00412	-0.013733	-0.090332	0.00885	0.010681	0.052643	-0.3212	0.029144	0.021973	-0.048065	-0.023804	-0.11002	-0.008087	-0.006409	-0.032654	0.016785	-0.003052	0.025787	-0.006561	-0.38177	-0.001526	0.045013	-0.12039	0.003204	-0.00412
30.485	0.004425	-0.1828	0.012054	0.005951	0.001221	-0.072174	0.04425	0.008087	-0.015411	-0.13046	0.00824	-0.00473	0.049896	-0.15533	0.011749	-0.07431	-0.011749	-0.14191	-0.094757	-0.002747	-0.009155	-0.031281	-0.0177	-0.02182	0.028839	0.001221	-0.51239	-0.005341	0.27985	-0.19089	0.001526	-0.003967
30.486	0.011444	-0.18341	0.016937	0.026855	0.023956	-0.024109	0.027161	0.000916	-0.007629	0.10361	0.000916	0.006256	0.10635	0.099792	0.004578	-0.42221	0.019836	-0.051117	-0.1326	-0.019226	-0.051422	-0.057678	0.013885	-0.042267	0.003052	-0.00824	-0.35172	-0.000305	0.30426	-0.15182	0.000153	-0.00061
30.487	0.002441	-0.074005	0.077209	0.007477	0.012817	0.020599	0.018616	0.007782	-0.007935	0.41596	0.003052	-0.001984	0.12344	0.43625	-0.021973	0.83679	0.024414	0.028687	0.097504	-0.042419	-0.099487	-0.055237	0.024261	-0.035248	-0.000763	-0.00412	-0.33402	-0.002289	0.24338	0.06897	0.003662	-0.000916
30.488	-0.006561	0.002136	0.032654	-0.001831	0.021362	0.02182	-0.001526	0.00473	-0.001221	-0.037994	0.012054	0.000763	-0.21469	0.49896	-0.01358	0.067444	0.041504	0.0737	0.062256	-0.009918	-0.11414	-0.052643	0.023193	-0.043182	0.006256	0.002289	-0.43503	-0.000763	0.31662	0.12421	0.002289	-0.008392
30.489	-0.000305	-0.044708	0.008698	-0.001526	0.001373	0.001831	0.007324	-0.000458	0.006866	-0.019989	0.011597	0.018921	-0.13519	0.21042	0.007477	-1.4375	0.040894	0.068207	-0.072021	0.037994	0.06134	-0.064087	0.041351	0.000305	0.030365	0.000763	-0.22415	-0.001221	0.31647	0.099792	0.000153	-0.005951
30.49	0.000458	-0.067444	0.011292	-0.023651	0.06012	0.009918	0.023804	-0.001831	0.009766	-0.16968	0.001831	-0.036774	-0.59204	-0.16266	0.01358	0.42969	0.036469	0.054169	0.028992	0.006104	0.30136	-0.071411	-0.00946	-0.041351	0.021362	-0.003052	-0.014954	0.000916	0.039368	0.11795	0.004883	-0.010986
30.491	0.006409	-0.12741	-0.050354	0.004883	0.008698	0.031586	0.018311	-0.000458	0.00351	0.081177	0.022278	0.015411	-0.40436	-0.1091	0.016632	1.0147	0.045013	0.027466	0.2533	0.010529	0.33829	-0.083466	0.018616	-0.06485	0.028992	-0.00351	0.020752	0	-0.15503	0.015259	0.000153	-0.010834
30.492	-0.006714	-0.20645	-0.13153	0.032349	-0.061951	0.039215	0.026245	-0.001373	-0.001831	0.3389	0.042114	0.039673	0.32913	0.17685	0.022125	-0.001221	-0.006409	-0.029297	0.24551	0.033569	0.093536	-0.00412	0.019836	-0.091858	0.030518	-0.003357	0.13992	0.005035	-0.15411	0.013428	0.000763	-0.015869
30.493	0.015259	-0.20493	-0.10422	0.055237	0.006714	-0.033875	0.020142	0.002136	0.013275	0.15137	0.042572	-0.10696	0.82092	0.34195	0.020294	-0.11551	-0.036316	-0.010681	0.13473	0.00885	-0.013123	-0.007935	-0.004578	-0.057373	0.035553	-0.00885	0.27802	-0.003967	-0.1265	-0.026245	-0.001068	-0.010986
30.494	-0.004425	-0.16174	0.001221	0.001678	0.01236	-0.012665	0.026855	0.005188	0.005493	0.017548	0.008698	0.2269	0.43976	-0.000153	0.010681	-0.027466	-0.034027	0.023041	0.16724	-0.028534	-0.04715	0.037994	0.025177	-0.055389	0.026093	-0.008392	0.21606	0.002136	-0.047455	-0.075073	0.000916	-0.012512
